<svg id="Layer_1" data-name="Layer 1" xmlns="http://www.w3.org/2000/svg" viewBox="0 0 120 120">
  <defs>
    <style>
      .cls-1, .cls-2 {
        fill: #1c2232;
      }

      .cls-2, .cls-3 {
        stroke: #1c2232;
        stroke-miterlimit: 10;
      }

      .cls-2 {
        stroke-width: 1px;
      }

      .cls-3 {
        fill: none;
        stroke-width: 1.34px;
      }
    </style>
  </defs>
  <g>
    <path class="cls-1" d="M38.09,85.22,9.44,64.71V58L38.09,34.78V46L18.74,60.87,38.09,74Z"/>
    <path class="cls-1" d="M81.91,74l19.35-13.16L81.91,46V34.78L110.56,58v6.7L81.91,85.22Z"/>
  </g>
  <g>
    <g>
      <path class="cls-1" d="M71.05,18.53,59,62.48H53.38l6-44.26Z"/>
      <rect class="cls-1" x="50.09" y="61.41" width="12.34" height="2.52"/>
      <path class="cls-1" d="M57.88,71.17H54.7l-1.93-7.4,1-1.26h5l.73,1.31Z"/>
    </g>
    <g>
      <path class="cls-2" d="M49.12,84.54a22.89,22.89,0,0,0,0,5.48c.44,3.6,1.57,5.6,2.19,7.66.76,2.53,1.1,6.41-1.09,12H61.16a27.67,27.67,0,0,1-1.09-7.66,30.48,30.48,0,0,1,1.09-7.67,31,31,0,0,1,1.1-3.28,2.73,2.73,0,0,1-4.38,0c-1.62-1.89.13-4.47-1.1-5.47-1.05-.87-2.73.75-5.47,0A6.7,6.7,0,0,1,49.12,84.54Z"/>
      <path class="cls-3" d="M62.1,81.68c-.2-.19-.8-.71-3.29-1.1-2.82-.44-6.53-1-8.75,1.1A2.86,2.86,0,0,0,49,83.87c.12,1.07,1.29,1.86,2.19,2.19,2.36.85,4.09-1,5.47,0,.45.33.67,1,1.1,2.19.66,1.9.38,2.78,1.09,3.28a2.49,2.49,0,0,0,2.19,0c1.71-.78,2-3.15,2.19-4.38S63.73,83.21,62.1,81.68Z"/>
    </g>
  </g>
</svg>
