<svg id="Layer_1" data-name="Layer 1" xmlns="http://www.w3.org/2000/svg" viewBox="0 0 500 181.73">
  <defs>
    <style>
      .cls-1, .cls-2, .cls-4, .cls-5 {
        fill: #f8f9fb;
      }

      .cls-2, .cls-3, .cls-4, .cls-5 {
        stroke: #f8f9fb;
      }

      .cls-2, .cls-3 {
        stroke-miterlimit: 10;
      }

      .cls-2 {
        stroke-width: 1.41px;
      }

      .cls-3 {
        fill: none;
        stroke-width: 1.88px;
      }

      .cls-4, .cls-5 {
        stroke-linejoin: round;
      }

      .cls-4 {
        stroke-width: 2px;
      }

      .cls-5 {
        stroke-width: 1.37px;
      }
    </style>
  </defs>
  <path class="cls-1" d="M97.29,79.83,63.82,64.43v-5L97.29,42V50.4L74.68,61.55l22.61,9.88Z"/>
  <path class="cls-1" d="M118.28,84.86H107.55V33.46H137v8.93H118.28V55.64h17.43v8.9H118.28Z"/>
  <path class="cls-1" d="M181.94,65.13q0,9.6-5.06,15t-14.1,5.41a19.73,19.73,0,0,1-10-2.48A16.41,16.41,0,0,1,146.16,76a23.86,23.86,0,0,1-2.32-10.83q0-9.63,5-15T163,44.81a19.82,19.82,0,0,1,10,2.46,16.45,16.45,0,0,1,6.64,7.07A23.66,23.66,0,0,1,181.94,65.13Zm-27.17,0c0,3.89.64,6.84,1.92,8.83s3.35,3,6.24,3,4.91-1,6.17-3S171,69.05,171,65.13s-.64-6.8-1.9-8.75-3.34-2.92-6.23-2.92-4.92,1-6.18,2.9S154.77,61.22,154.77,65.13Z"/>
  <path class="cls-1" d="M226.52,65.13q0,9.6-5.06,15t-14.1,5.41a19.73,19.73,0,0,1-10-2.48A16.49,16.49,0,0,1,190.73,76a24,24,0,0,1-2.32-10.83q0-9.63,5-15t14.13-5.35a19.84,19.84,0,0,1,10,2.46,16.45,16.45,0,0,1,6.64,7.07A23.66,23.66,0,0,1,226.52,65.13Zm-27.17,0c0,3.89.64,6.84,1.91,8.83s3.36,3,6.24,3,4.92-1,6.17-3,1.88-4.93,1.88-8.85-.63-6.8-1.89-8.75-3.34-2.92-6.23-2.92-4.92,1-6.18,2.9S199.35,61.22,199.35,65.13Z"/>
  <path class="cls-1" d="M236.23,33.46h16q10.93,0,15.87,3.11t4.94,9.9A12.43,12.43,0,0,1,270.87,54a8.65,8.65,0,0,1-5.75,3.56v.35Q270,59,272.17,62A13.26,13.26,0,0,1,274.33,70a13.09,13.09,0,0,1-5.08,11q-5.07,3.93-13.79,3.94H236.23Zm10.89,20.35h6.33c3,0,5.09-.45,6.42-1.37s2-2.42,2-4.53a4.55,4.55,0,0,0-2.16-4.24q-2.16-1.28-6.84-1.28h-5.73Zm0,8.65v13.4h7.11q4.5,0,6.64-1.73A6.33,6.33,0,0,0,263,68.86q0-6.39-9.14-6.4Z"/>
  <path class="cls-1" d="M308.72,84.86l-2.08-5.35h-.28a15.74,15.74,0,0,1-5.57,4.73,18,18,0,0,1-7.47,1.32q-5.65,0-8.91-3.23t-3.25-9.22q0-6.26,4.37-9.22t13.2-3.29l6.82-.21V58.67q0-6-6.11-6a27.88,27.88,0,0,0-11.08,2.85l-3.55-7.25a32,32,0,0,1,15.05-3.55q7.9,0,12.13,3.45t4.22,10.48V84.86Zm-3.17-18.21-4.14.14q-4.68.13-7,1.68a5.32,5.32,0,0,0-2.28,4.71q0,4.54,5.2,4.54a8.23,8.23,0,0,0,6-2.14,7.53,7.53,0,0,0,2.23-5.7Z"/>
  <path class="cls-1" d="M349.18,44.81a17.26,17.26,0,0,1,3.62.32l-.8,10a12.56,12.56,0,0,0-3.17-.35q-5.13,0-8,2.64A9.53,9.53,0,0,0,338,64.85v20H327.25V45.55h8.12L337,52.16h.53a14.6,14.6,0,0,1,4.94-5.32A12.15,12.15,0,0,1,349.18,44.81Z"/>
  <path class="cls-1" d="M410.78,71.43l22.6-9.88L410.78,50.4V42L444.25,59.4v5l-33.47,15.4Z"/>
  <g>
    <path class="cls-1" d="M399.76,24.85l-17,62h-7.95l8.43-62.48Z"/>
    <rect class="cls-1" x="370.18" y="85.37" width="17.42" height="3.56"/>
    <path class="cls-1" d="M381.18,99.15h-4.5L374,88.7l1.35-1.77h7.09l1,1.84Z"/>
  </g>
  <g>
    <path class="cls-1" d="M139.18,111.32a5,5,0,0,0-4,1.69,8.32,8.32,0,0,0,0,9.33,5,5,0,0,0,4,1.65,13.25,13.25,0,0,0,3.77-.62v1.72a10,10,0,0,1-1.93.5,14.78,14.78,0,0,1-2.12.13,6.77,6.77,0,0,1-5.35-2.11,8.71,8.71,0,0,1-1.87-6,9.53,9.53,0,0,1,.9-4.25,6.29,6.29,0,0,1,2.61-2.81,7.89,7.89,0,0,1,4-1,9.67,9.67,0,0,1,4.34.92l-.79,1.68A8.54,8.54,0,0,0,139.18,111.32Z"/>
    <path class="cls-1" d="M153.5,119v6.49h-2V109.8h4.33a7,7,0,0,1,4.33,1.11,4,4,0,0,1,1.4,3.35,4.15,4.15,0,0,1-3.15,4.21l4.31,7h-2.31l-3.8-6.49Zm0-1.68h2.35a4.28,4.28,0,0,0,2.8-.75,2.78,2.78,0,0,0,.88-2.23,2.58,2.58,0,0,0-.89-2.17,4.86,4.86,0,0,0-2.89-.68H153.5Z"/>
    <path class="cls-1" d="M180.23,125.51l-1.89-4.87h-6.23l-1.87,4.87h-2l6.14-15.77h1.78l6.12,15.77Zm-2.48-6.62L176,114.13l-.75-2.35c-.22.86-.45,1.64-.68,2.35l-1.78,4.76Z"/>
    <path class="cls-1" d="M191.59,125.51h-2V109.8h8.78v1.74h-6.8v5.57H198v1.73h-6.38Z"/>
    <path class="cls-1" d="M211.17,125.51h-2v-14h-4.91V109.8h11.77v1.74h-4.88Z"/>
    <path class="cls-1" d="M234.49,109.8H239a8.48,8.48,0,0,1,4.56.94,3.31,3.31,0,0,1,1.4,3,3.48,3.48,0,0,1-.76,2.31,3.68,3.68,0,0,1-2.22,1.17v.11a4.53,4.53,0,0,1,2.67,1.26,3.62,3.62,0,0,1,.85,2.5,4,4,0,0,1-1.44,3.29,6.21,6.21,0,0,1-4,1.18h-5.52Zm2,6.68h2.9a4.69,4.69,0,0,0,2.68-.59,2.23,2.23,0,0,0,.84-2,2,2,0,0,0-.92-1.86,5.67,5.67,0,0,0-2.9-.57h-2.6Zm0,1.66v5.69h3.17a4.42,4.42,0,0,0,2.8-.73,2.65,2.65,0,0,0,.91-2.21,2.37,2.37,0,0,0-1-2.08,5.12,5.12,0,0,0-2.9-.67Z"/>
    <path class="cls-1" d="M262.73,125.51H254V109.8h8.77v1.74h-6.8v4.9h6.41v1.72h-6.41v5.61h6.8Z"/>
    <path class="cls-1" d="M280.14,125.51h-8.78V109.8h8.78v1.74h-6.8v4.9h6.4v1.72h-6.4v5.61h6.8Z"/>
    <path class="cls-1" d="M290.75,119v6.49h-2V109.8h4.33a6.9,6.9,0,0,1,4.32,1.11,4,4,0,0,1,1.4,3.35,4.15,4.15,0,0,1-3.14,4.21l4.3,7h-2.31l-3.8-6.49Zm0-1.68h2.35a4.27,4.27,0,0,0,2.79-.75,2.75,2.75,0,0,0,.88-2.23,2.58,2.58,0,0,0-.89-2.17,4.84,4.84,0,0,0-2.89-.68h-2.24Z"/>
  </g>
  <g>
    <path class="cls-1" d="M199.1,142.51a5.48,5.48,0,0,1-1.21,3.77,4.93,4.93,0,0,1-6.81,0,6.59,6.59,0,0,1,0-7.6,4.39,4.39,0,0,1,3.44-1.34,4.28,4.28,0,0,1,3.38,1.36A5.49,5.49,0,0,1,199.1,142.51Zm-7.9,0a4.7,4.7,0,0,0,.84,3,3.42,3.42,0,0,0,4.89,0,5.92,5.92,0,0,0,0-6.06,2.93,2.93,0,0,0-2.43-1,3,3,0,0,0-2.47,1A4.62,4.62,0,0,0,191.2,142.51Z"/>
    <path class="cls-1" d="M212.52,147.52h-1.47l-5.35-8.3h-.06l0,.56c0,.82.08,1.54.08,2.16v5.58H204.6v-10h1.45l.31.48,3.28,5.07,1.75,2.72h.05c0-.11,0-.5-.05-1.17s0-1.16,0-1.46v-5.64h1.17Z"/>
    <path class="cls-1" d="M228.62,147.52h-1.27v-8.89h-3.12v-1.1h7.49v1.1h-3.1Z"/>
    <path class="cls-1" d="M242.32,147.52l-1.21-3.1h-4l-1.19,3.1h-1.27l3.9-10h1.14l3.89,10Zm-1.58-4.21-1.12-3-.48-1.5c-.14.55-.28,1.05-.43,1.5l-1.14,3Z"/>
    <path class="cls-1" d="M254.69,140.47a2.78,2.78,0,0,1-1.05,2.34,4.66,4.66,0,0,1-2.95.82h-1.14v3.89h-1.26v-10h2.64C253.43,137.53,254.69,138.51,254.69,140.47Zm-5.14,2.08h1a3.79,3.79,0,0,0,2.16-.48,1.77,1.77,0,0,0,.67-1.55,1.72,1.72,0,0,0-.62-1.44,3.18,3.18,0,0,0-1.94-.48h-1.27Z"/>
  </g>
  <path class="cls-2" d="M368.81,118a32.67,32.67,0,0,0,0,7.73c.62,5.1,2.22,7.91,3.09,10.82,1.07,3.58,1.55,9.05-1.55,17h15.46a38.5,38.5,0,0,1-1.55-10.82,43.07,43.07,0,0,1,1.55-10.82,41.9,41.9,0,0,1,1.55-4.63,4.28,4.28,0,0,1-3.1,1.54,4.23,4.23,0,0,1-3.09-1.54c-2.29-2.68.19-6.32-1.54-7.73-1.49-1.22-3.86,1.07-7.73,0A9.1,9.1,0,0,1,368.81,118Z"/>
  <path class="cls-3" d="M387.13,114c-.28-.26-1.13-1-4.64-1.54-4-.63-9.23-1.44-12.36,1.54-.43.41-1.71,1.63-1.55,3.09s1.82,2.63,3.1,3.09c3.33,1.21,5.77-1.43,7.72,0,.64.47.94,1.35,1.55,3.1.93,2.68.54,3.92,1.54,4.63,1.19.84,3,0,3.09,0,2.41-1.09,2.86-4.44,3.1-6.18S389.43,116.15,387.13,114Z"/>
  <path class="cls-4" d="M88,96.86H347.8"/>
  <path class="cls-5" d="M396.76,96.86h25"/>
</svg>
