<svg xmlns="http://www.w3.org/2000/svg" width="10.943" height="28.5" viewBox="0 0 10.943 28.5">
  <path id="appearence" d="M43.484,7.768s0-.008,0-.012,0-.007,0-.011a3.389,3.389,0,0,0-2.849-2.7,2.717,2.717,0,0,0-1.327.159,1.2,1.2,0,0,1-.4.092c-.076,0-.184-.014-.317-.028a7.243,7.243,0,0,0-3.39.3A4.022,4.022,0,0,0,32.933,7.68a.333.333,0,0,0-.007.04.314.314,0,0,0-.014.048,42.741,42.741,0,0,0,0,7.649c.162,1.059.5,2.431.848,3.884A32.138,32.138,0,0,1,34.9,25.474a31.2,31.2,0,0,1-.337,3.861c-.124.965-.252,1.962-.308,2.918a1.187,1.187,0,0,0,.325.9,1.21,1.21,0,0,0,.892.378h5.456a1.224,1.224,0,0,0,.892-.378,1.19,1.19,0,0,0,.325-.9c-.056-.956-.184-1.953-.308-2.919a31.1,31.1,0,0,1-.337-3.859A32.132,32.132,0,0,1,42.633,19.3c.353-1.452.686-2.824.848-3.882A42.8,42.8,0,0,0,43.484,7.768ZM34.651,8.6a.321.321,0,0,0-.335.3c-.017.291-.042.548-.065,1.182h-.84c.036-.95.084-1.584.111-1.9h9.354c.028.317.075.95.111,1.9h-8.1c.022-.317.046-.861.063-1.143A.321.321,0,0,0,34.651,8.6Zm.77-2.4a6.739,6.739,0,0,1,3.1-.282c.153.016.277.019.364.022a1.752,1.752,0,0,0,.626-.131,2.151,2.151,0,0,1,1.049-.095,2.634,2.634,0,0,1,2.2,1.836h-9A4.07,4.07,0,0,1,35.42,6.2Zm5.937,26.512a.582.582,0,0,1-.431.179H35.47a.581.581,0,0,1-.431-.179.552.552,0,0,1-.154-.421c.025-.427.066-.984.114-1.3h6.337a.317.317,0,0,0,.059-.016c.048.445.09.883.115,1.314A.56.56,0,0,1,41.357,32.713Zm1.5-17.388c-.158,1.031-.488,2.388-.838,3.827a32.388,32.388,0,0,0-1.154,6.323,31.7,31.7,0,0,0,.342,3.944q.06.464.117.939h-6.25q.057-.475.117-.938a31.637,31.637,0,0,0,.342-3.944,32.393,32.393,0,0,0-1.153-6.324c-.35-1.439-.68-2.795-.838-3.826a28.028,28.028,0,0,1-.154-4.606h.836a26.536,26.536,0,0,0,.121,4.531c.154,1.008.481,2.351.829,3.786.222.915.453,1.861.648,2.763a.317.317,0,0,0,.309.249.328.328,0,0,0,.067-.007.318.318,0,0,0,.243-.377c-.2-.91-.428-1.861-.654-2.79-.343-1.41-.666-2.738-.816-3.719a26.957,26.957,0,0,1-.113-4.436H43.01A27.952,27.952,0,0,1,42.855,15.325ZM36.3,22.55a.321.321,0,0,0-.254.373,14.6,14.6,0,0,1,.294,2.567c0,.123,0,.266,0,.389a.348.348,0,0,0,.309.361h.008a.35.35,0,0,0,.317-.345c0-.128,0-.29,0-.418a15.1,15.1,0,0,0-.3-2.674A.316.316,0,0,0,36.3,22.55Z" transform="translate(-32.727 -5.026)"/>
</svg>
