<svg xmlns="http://www.w3.org/2000/svg" xmlns:xlink="http://www.w3.org/1999/xlink" width="21" height="35" viewBox="0 0 21 35">
  <defs>
    <clipPath id="clip-path">
      <rect id="Rectángulo_101" data-name="Rectángulo 101" width="21" height="35" rx="9" transform="translate(16 177)" fill="#fff" stroke="#707070" stroke-width="1"/>
    </clipPath>
  </defs>
  <g id="Enmascarar_grupo_2" data-name="Enmascarar grupo 2" transform="translate(-16 -177)" clip-path="url(#clip-path)">
    <path id="aroma" d="M252.97,55.41c-.137.015-.267.036-.4.057a4.591,4.591,0,0,0,.884-3.692.387.387,0,0,0-.463-.3c-.19.042-.37.091-.544.146a4.773,4.773,0,0,0,.684-3.809.387.387,0,0,0-.471-.249,5.679,5.679,0,0,0-.585.2,5.5,5.5,0,0,0,.382-3.675.385.385,0,0,0-.443-.278,3.449,3.449,0,0,0-1.3.534c.051-1.171-.064-3.111-1.209-4.189V31.776a.387.387,0,0,0-.774,0v8.156l-.006,0a5.146,5.146,0,0,0-1.344,4.217,3.459,3.459,0,0,0-.987-.345.389.389,0,0,0-.443.279,5.5,5.5,0,0,0,.381,3.67,5.967,5.967,0,0,0-.584-.2.388.388,0,0,0-.471.249,4.774,4.774,0,0,0,.684,3.811c-.175-.055-.355-.105-.546-.147a.387.387,0,0,0-.463.3,4.585,4.585,0,0,0,.874,3.677c-.15-.027-.3-.052-.461-.07a.392.392,0,0,0-.309.1.388.388,0,0,0-.121.3c.213,4.024,2.832,5.32,3.8,5.661v4.381a.387.387,0,1,0,.774,0V61.46l0-.016a.96.96,0,0,1,.1-.04c.834-.27,3.573-1.473,3.79-5.589a.387.387,0,0,0-.428-.405Zm-3.952-14.662c1.2,1.181.929,3.8.859,4.335a5.784,5.784,0,0,0-.668.942,5.375,5.375,0,0,0-.963-1.248C248.166,44.346,247.823,42.13,249.018,40.747Zm-2.4,3.916c1.9.636,2.54,3.253,2.546,3.281a.387.387,0,0,0,.753-.177,6.512,6.512,0,0,0-.288-.871,3.952,3.952,0,0,1,2.165-2.234,5.6,5.6,0,0,1-1.017,3.836,5.947,5.947,0,0,0-1.567,1.846,5.839,5.839,0,0,0-1.58-1.852A5.6,5.6,0,0,1,246.62,44.663Zm-.7,3.762a5.031,5.031,0,0,1,2.928,2.949c0,.012.008.024.014.036a5.3,5.3,0,0,1,.3,1.023.387.387,0,0,0,.765-.117,5.983,5.983,0,0,0-.3-1.064,4.96,4.96,0,0,1,2.866-2.828c.287,1.7-1.211,3.572-1.424,3.828a5.368,5.368,0,0,0-1.866,2.043,5.377,5.377,0,0,0-1.862-2.046C247.122,51.986,245.635,50.123,245.921,48.425Zm1.412,7.479a4.315,4.315,0,0,1-1.674-3.573,4.747,4.747,0,0,1,3.4,3.925.378.378,0,0,0,.422.347.387.387,0,0,0,.348-.422,4.935,4.935,0,0,0-.212-.911,4.612,4.612,0,0,1,3.142-2.94,4.255,4.255,0,0,1-1.673,3.574.284.284,0,0,0-.027.03,4.362,4.362,0,0,0-1.94,1.784,4.117,4.117,0,0,0-.3-.519,3.947,3.947,0,0,0-1.427-1.239A.385.385,0,0,0,247.333,55.9Zm-1.582.316a3.653,3.653,0,0,1,2.425,1.42,4.678,4.678,0,0,1,.663,3.025A5.045,5.045,0,0,1,245.752,56.221Zm3.873,4.353a6.312,6.312,0,0,0-.144-1.847.371.371,0,0,0,.039-.061,3.8,3.8,0,0,1,3.069-2.417A4.93,4.93,0,0,1,249.625,60.573ZM246.026,43a.387.387,0,0,0,.387-.387V36.033a.387.387,0,0,0-.774,0v6.579A.387.387,0,0,0,246.026,43Zm5.8,0a.387.387,0,0,0,.387-.387V36.033a.387.387,0,1,0-.774,0v6.579A.387.387,0,0,0,251.831,43Z" transform="translate(-222.913 145.611)"/>
  </g>
</svg>
