<svg xmlns="http://www.w3.org/2000/svg" width="32.999" height="14.58" viewBox="0 0 32.999 14.58">
  <path id="Trazado_4" data-name="Trazado 4" d="M1.029,19c2.9,6.572,8.284,9.837,16.467,9.98,1.649-.414,11.769.706,16.479-9.98a.348.348,0,0,0-.3-.482,18.115,18.115,0,0,1-8.692-2.93A6.018,6.018,0,0,0,21.5,14.4a6.093,6.093,0,0,0-3.374,1.093c-1.178.8-1.756-1.093-4.614-1.093a6.018,6.018,0,0,0-3.485,1.187C5.13,19.022,1.1,18.022,1.006,18.818A.621.621,0,0,0,1.029,19ZM17.5,28.291c-7.449-.132-12.48-2.943-15.356-8.565,3.3,1.716,7.424,1.739,10.8,1.753,4.5.018,4.055.289,5.112.155,3.714-.474,10.066.554,14.8-1.908C29.982,25.347,24.952,28.158,17.5,28.291ZM10.418,16.148a5.347,5.347,0,0,1,3.09-1.062c2.68,0,3.352,2.089,5,.974a5.409,5.409,0,0,1,2.989-.974,5.347,5.347,0,0,1,3.09,1.062A18.278,18.278,0,0,0,32.563,19.1c-4.548,2.379-10.841,1.369-14.587,1.847a3.724,3.724,0,0,1-.947,0C13.255,20.47,7,21.488,2.441,19.1A18.279,18.279,0,0,0,10.418,16.148Z" transform="translate(-1.005 -14.398)"/>
</svg>
