<svg xmlns="http://www.w3.org/2000/svg" width="53" height="53" viewBox="0 0 53 53">
  <g id="Grupo_63" data-name="Grupo 63" transform="translate(-17 -616)">
    <g id="Grupo_2" data-name="Grupo 2" transform="translate(17 616)">
      <g id="Trazado_44" data-name="Trazado 44" transform="translate(0 0)" fill="#fff">
        <path d="M 26.5 51.5 C 23.12435913085938 51.5 19.85049057006836 50.83921051025391 16.76932907104492 49.53599166870117 C 13.79253005981445 48.27690887451172 11.11876964569092 46.4741096496582 8.822330474853516 44.17766952514648 C 6.525889873504639 41.88122940063477 4.723090171813965 39.20746994018555 3.464010000228882 36.23067092895508 C 2.160789966583252 33.14950942993164 1.5 29.87564086914062 1.5 26.5 C 1.5 23.12435913085938 2.160789966583252 19.85049057006836 3.464010000228882 16.76932907104492 C 4.723090171813965 13.79253005981445 6.525889873504639 11.11876964569092 8.822330474853516 8.822330474853516 C 11.11876964569092 6.525889873504639 13.79253005981445 4.723090171813965 16.76932907104492 3.464010000228882 C 19.85049057006836 2.160789966583252 23.12435913085938 1.5 26.5 1.5 C 29.87564086914062 1.5 33.14950942993164 2.160789966583252 36.23067092895508 3.464010000228882 C 39.20746994018555 4.723090171813965 41.88122940063477 6.525889873504639 44.17766952514648 8.822330474853516 C 46.4741096496582 11.11876964569092 48.27690887451172 13.79253005981445 49.53599166870117 16.76932907104492 C 50.83921051025391 19.85049057006836 51.5 23.12435913085938 51.5 26.5 C 51.5 29.87564086914062 50.83921051025391 33.14950942993164 49.53599166870117 36.23067092895508 C 48.27690887451172 39.20746994018555 46.4741096496582 41.88122940063477 44.17766952514648 44.17766952514648 C 41.88122940063477 46.4741096496582 39.20746994018555 48.27690887451172 36.23067092895508 49.53599166870117 C 33.14950942993164 50.83921051025391 29.87564086914062 51.5 26.5 51.5 Z" stroke="none"/>
        <path d="M 26.5 3 C 23.32620048522949 3 20.24893188476562 3.620918273925781 17.35366058349609 4.84552001953125 C 14.55566024780273 6.028968811035156 12.04216003417969 7.723819732666016 9.882991790771484 9.882991790771484 C 7.723819732666016 12.04216003417969 6.028968811035156 14.55566024780273 4.84552001953125 17.35366058349609 C 3.620918273925781 20.24893188476562 3 23.32620048522949 3 26.5 C 3 29.67379951477051 3.620918273925781 32.75106811523438 4.84552001953125 35.64633941650391 C 6.028968811035156 38.44433975219727 7.723819732666016 40.95783996582031 9.882991790771484 43.11701202392578 C 12.04216003417969 45.27618026733398 14.55566024780273 46.97103118896484 17.35366058349609 48.15447998046875 C 20.24893188476562 49.37908172607422 23.32620048522949 50 26.5 50 C 29.67379951477051 50 32.75106811523438 49.37908172607422 35.64633941650391 48.15447998046875 C 38.44433975219727 46.97103118896484 40.95783996582031 45.27618026733398 43.11701202392578 43.11701202392578 C 45.27618026733398 40.95783996582031 46.97103118896484 38.44433975219727 48.15447998046875 35.64633941650391 C 49.37908172607422 32.75106811523438 50 29.67379951477051 50 26.5 C 50 23.32620048522949 49.37908172607422 20.24893188476562 48.15447998046875 17.35366058349609 C 46.97103118896484 14.55566024780273 45.27618026733398 12.04216003417969 43.11701202392578 9.882991790771484 C 40.95783996582031 7.723819732666016 38.44433975219727 6.028968811035156 35.64633941650391 4.84552001953125 C 32.75106811523438 3.620918273925781 29.67379951477051 3 26.5 3 M 26.5 0 C 41.13554000854492 0 53 11.86445999145508 53 26.5 C 53 41.13554000854492 41.13554000854492 53 26.5 53 C 11.86445999145508 53 0 41.13554000854492 0 26.5 C 0 11.86445999145508 11.86445999145508 0 26.5 0 Z" stroke="none" fill="#3eb6ff"/>
      </g>
    </g>
    <path id="Trazado_7" data-name="Trazado 7" d="M2329.9,521.721l8.244,11.366L2355.4,508" transform="translate(-2299.65 121.25)" fill="none" stroke="#3eb6ff" stroke-linecap="round" stroke-linejoin="round" stroke-width="3"/>
  </g>
</svg>
